<svg xmlns="http://www.w3.org/2000/svg" viewBox="0 0 194.14 56.11"><defs><style>.cls-1{fill:#383838;}.cls-2{fill:#0e4fa2;}.cls-3{fill:#bf3604;}</style></defs><g id="레이어_2" data-name="레이어 2"><g id="레이어_1-2" data-name="레이어 1"><polygon class="cls-1" points="0.88 24.33 39.87 24.33 38.99 31.35 23.52 31.35 22.78 36.92 31.89 36.92 29.75 56.07 21.95 56.07 23.21 43.95 5.81 43.95 6.69 36.92 15.03 36.92 15.77 31.35 0 31.35 0.88 24.33"/><polygon class="cls-1" points="27.59 11.24 5.69 11.24 6.54 4.4 36.24 4.4 33.63 21.27 25.84 21.27 27.59 11.24"/><path class="cls-1" d="M76.81,4.57H53L49.86,31.43H73.7Zm-10,19.59H58.51l1.38-12.51h8.29Z"/><polygon class="cls-1" points="66.24 49.16 67.71 37.02 59.69 37.02 57.21 56.07 83.8 56.07 84.8 49.16 66.24 49.16"/><polygon class="cls-1" points="89.99 0 82.21 0 78.35 31.43 86.13 31.43 89.99 0"/><polygon class="cls-1" points="99.49 8.42 108.5 8.42 109.1 3.63 117.18 3.63 116.58 8.42 125.55 8.42 124.64 15.71 117.67 15.71 122.77 31.43 114.24 31.43 110.93 21.27 105.14 31.38 96.61 31.38 105.54 15.71 98.58 15.71 99.49 8.42"/><polyline class="cls-1" points="132.83 31.43 126.89 31.43 131.12 0 139.21 0 137.95 7.7 143.5 7.7 142.59 14.99 137.04 14.99 134.98 31.43"/><polygon class="cls-1" points="181.76 0 189.85 0 188.59 7.7 194.14 7.7 193.23 14.99 187.68 14.99 185.62 31.43 177.54 31.43 181.76 0"/><path class="cls-1" d="M168.45,7.22l-.79,6.27H159.5l.79-6.27h-7.52l-3,24.21h23.15l3-24.21Zm-2.18,17.4h-8.16l.54-4.31h8.16Z"/><polygon class="cls-2" points="123.88 49.47 123.88 56.11 110.5 56.11 110.5 44.81 113.22 49.87 113.22 53.6 114.98 53.6 116.12 55.63 118.54 53.6 121.15 53.6 121.15 51.66 123.88 49.47"/><polygon class="cls-2" points="118.17 46.38 115.47 38.98 108.42 39.06 116.38 54.44 129.01 44.38 143.46 32.88 132.83 32.88 118.17 46.38"/><polygon class="cls-3" points="173.86 49.5 173.86 56.11 160.48 56.11 160.48 44.81 163.2 49.87 163.2 53.6 164.96 53.6 166.1 55.63 168.65 53.6 171.13 53.6 171.13 51.62 173.86 49.5"/><polygon class="cls-3" points="168.35 46.37 165.45 38.98 158.4 39.06 166.36 54.44 193.44 32.88 182.81 32.88 168.35 46.37"/></g></g></svg>